<svg id="Livello_1" data-name="Livello 1" xmlns="http://www.w3.org/2000/svg" xmlns:xlink="http://www.w3.org/1999/xlink" viewBox="0 0 135.81 89.5">
  <defs>
    <style>
      .cls-1 {
        fill: none;
      }

      .cls-2 {
        clip-path: url(#clip-path);
      }

      .cls-3 {
        fill: #ff5a00;
      }
    </style>
    <clipPath id="clip-path">
      <rect class="cls-1" width="135.81" height="89.5"/>
    </clipPath>
  </defs>
  <title>isi-logo</title>
  <g class="cls-2">
    <path class="cls-3" d="M46.3,29.24H40V.68H46.3Zm-27.44-7a4.54,4.54,0,0,0,1.38,1.62,6,6,0,0,0,2,.92,9.54,9.54,0,0,0,2.4.3,12.56,12.56,0,0,0,1.8-.14,6.31,6.31,0,0,0,1.8-.54,3.94,3.94,0,0,0,1.4-1.1,2.76,2.76,0,0,0,.56-1.78,2.51,2.51,0,0,0-.74-1.88,5.88,5.88,0,0,0-1.94-1.2,19.38,19.38,0,0,0-2.72-.84q-1.52-.36-3.08-.8a27.51,27.51,0,0,1-3.12-1,10.73,10.73,0,0,1-2.72-1.5A7.07,7.07,0,0,1,14,12a7,7,0,0,1-.74-3.34,7.47,7.47,0,0,1,.94-3.82,8.5,8.5,0,0,1,2.46-2.7A10.7,10.7,0,0,1,20.07.52,14.62,14.62,0,0,1,23.91,0a18.14,18.14,0,0,1,4.3.5,10.72,10.72,0,0,1,3.66,1.62A8.2,8.2,0,0,1,34.4,5a8.78,8.78,0,0,1,.94,4.22H29.26a5.07,5.07,0,0,0-.54-2.12A3.54,3.54,0,0,0,27.5,5.76a5.16,5.16,0,0,0-1.74-.68,10.67,10.67,0,0,0-2.14-.2A7.33,7.33,0,0,0,22.1,5a4,4,0,0,0-1.38.56,3.45,3.45,0,0,0-1,1,2.68,2.68,0,0,0-.4,1.52,2.56,2.56,0,0,0,.32,1.36,2.86,2.86,0,0,0,1.26,1,16.16,16.16,0,0,0,2.6.88l4.34,1.12q.8.16,2.22.58a10.64,10.64,0,0,1,2.82,1.34,8.52,8.52,0,0,1,2.42,2.46,7,7,0,0,1,1,3.94,8.74,8.74,0,0,1-.76,3.64,7.92,7.92,0,0,1-2.26,2.9,10.89,10.89,0,0,1-3.72,1.9,17.6,17.6,0,0,1-5.14.68,18.07,18.07,0,0,1-4.58-.58,11.54,11.54,0,0,1-3.92-1.82,9,9,0,0,1-2.7-3.16,9.42,9.42,0,0,1-1-4.56h6.08a5.24,5.24,0,0,0,.52,2.44m-10.32,7H2.26V.68H8.55Z"/>
    <path class="cls-3" d="M69.18,81.58v1.23h0a2.68,2.68,0,0,1,2.52-1.41,3.37,3.37,0,0,1,1.28.21,2.1,2.1,0,0,1,.83.59,2.17,2.17,0,0,1,.44.89,4.79,4.79,0,0,1,.13,1.15v5.1H73.12V84.08a1.54,1.54,0,0,0-.42-1.14,1.56,1.56,0,0,0-1.16-.42,2.6,2.6,0,0,0-1,.18,1.9,1.9,0,0,0-.71.51,2.2,2.2,0,0,0-.43.77,3.14,3.14,0,0,0-.14,1v4.38H68V81.58Zm-10,2.29a3.62,3.62,0,0,1,.72-1.29,3.4,3.4,0,0,1,1.18-.86,4.34,4.34,0,0,1,3.25,0,3.42,3.42,0,0,1,1.18.86,3.62,3.62,0,0,1,.72,1.29,5.16,5.16,0,0,1,.24,1.6,5.09,5.09,0,0,1-.24,1.59,3.63,3.63,0,0,1-.72,1.28,3.33,3.33,0,0,1-1.18.85,4.45,4.45,0,0,1-3.25,0,3.31,3.31,0,0,1-1.18-.85,3.63,3.63,0,0,1-.72-1.28,5.09,5.09,0,0,1-.24-1.59,5.16,5.16,0,0,1,.24-1.6m1.3,2.85a2.62,2.62,0,0,0,.52.92,2.24,2.24,0,0,0,.77.56,2.35,2.35,0,0,0,1.88,0,2.25,2.25,0,0,0,.77-.56,2.62,2.62,0,0,0,.52-.92,4.26,4.26,0,0,0,0-2.5,2.7,2.7,0,0,0-.52-.92,2.21,2.21,0,0,0-.77-.57,2.35,2.35,0,0,0-1.87,0,2.2,2.2,0,0,0-.77.57,2.71,2.71,0,0,0-.52.92,4.28,4.28,0,0,0,0,2.5m-3.1,2.62H56.11V81.58h1.28ZM56.11,78.62h1.28v1.56H56.11Zm-1.49,3V82.7H53.08v4.82a1.39,1.39,0,0,0,0,.36.37.37,0,0,0,.14.21.63.63,0,0,0,.29.1l.49,0h.58v1.13h-1a4.58,4.58,0,0,1-.85-.07,1.25,1.25,0,0,1-.57-.25,1.06,1.06,0,0,1-.32-.51,3,3,0,0,1-.1-.87V82.7H50.49V81.58h1.32V79.25h1.28v2.32Zm-6.57,5a1.43,1.43,0,0,1-.13.57,1.72,1.72,0,0,1-.42.57,2.27,2.27,0,0,1-.74.43,3,3,0,0,1-1.08.17,2.61,2.61,0,0,1-.57-.06,1.36,1.36,0,0,1-.47-.19,1.05,1.05,0,0,1-.33-.35,1,1,0,0,1-.13-.53,1.19,1.19,0,0,1,.22-.75,1.42,1.42,0,0,1,.56-.43,3.22,3.22,0,0,1,.78-.22l.86-.12q.43-.05.82-.13a1.59,1.59,0,0,0,.63-.26Zm2.07,1.69a1.54,1.54,0,0,1-.39.06c-.2,0-.32-.07-.35-.21a3,3,0,0,1-.05-.66v-4a2.08,2.08,0,0,0-.26-1.09,1.79,1.79,0,0,0-.67-.65,2.72,2.72,0,0,0-.94-.31,7.27,7.27,0,0,0-1-.07,5.42,5.42,0,0,0-1.24.13,3,3,0,0,0-1,.44,2.28,2.28,0,0,0-.72.8,2.75,2.75,0,0,0-.3,1.21h1.27A1.3,1.3,0,0,1,45,82.83a2.7,2.7,0,0,1,1.35-.31,4.2,4.2,0,0,1,.61,0,1.65,1.65,0,0,1,.55.18,1.08,1.08,0,0,1,.41.39,1.27,1.27,0,0,1,.16.68.7.7,0,0,1-.21.55,1.39,1.39,0,0,1-.57.28,5.55,5.55,0,0,1-.83.15c-.31,0-.65.09-1,.16s-.65.14-1,.22a2.74,2.74,0,0,0-.84.4,2,2,0,0,0-.59.68,2.28,2.28,0,0,0-.22,1.08,2.25,2.25,0,0,0,.2,1,1.79,1.79,0,0,0,.55.67,2.31,2.31,0,0,0,.82.38,4.23,4.23,0,0,0,2.51-.16,3.05,3.05,0,0,0,1.22-.91,1.21,1.21,0,0,0,.29.91,1.1,1.1,0,0,0,.79.28,1.8,1.8,0,0,0,.91-.19ZM40,89.33V88.28h0a1.88,1.88,0,0,1-1,.93,3.78,3.78,0,0,1-1.49.28,3.5,3.5,0,0,1-1.57-.33,3.23,3.23,0,0,1-1.11-.89A3.86,3.86,0,0,1,34.17,87a5.3,5.3,0,0,1-.22-1.56,5.47,5.47,0,0,1,.22-1.56,3.68,3.68,0,0,1,.66-1.28,3.2,3.2,0,0,1,1.11-.87,3.53,3.53,0,0,1,1.55-.32,3.78,3.78,0,0,1,.65.06,3.28,3.28,0,0,1,.69.2,2.94,2.94,0,0,1,.65.38,2.05,2.05,0,0,1,.52.58h0v-4h1.27V89.33Zm-4.58-2.75a2.85,2.85,0,0,0,.44.92,2.13,2.13,0,0,0,.75.64,2.28,2.28,0,0,0,1.07.24,2.1,2.1,0,0,0,1.83-.92,2.78,2.78,0,0,0,.41-.94,4.53,4.53,0,0,0,0-2.17,2.73,2.73,0,0,0-.43-.94,2.17,2.17,0,0,0-.76-.65,2.35,2.35,0,0,0-1.12-.25,2.19,2.19,0,0,0-1.1.26,2,2,0,0,0-.72.67,2.94,2.94,0,0,0-.39,1,5.1,5.1,0,0,0-.12,1.11,4,4,0,0,0,.14,1.06m-8.21-5v1.23h0a2.68,2.68,0,0,1,2.52-1.41,3.37,3.37,0,0,1,1.27.21,2.1,2.1,0,0,1,.83.59,2.17,2.17,0,0,1,.44.89,4.79,4.79,0,0,1,.13,1.15v5.1H31.17V84.08a1.54,1.54,0,0,0-.42-1.14,1.56,1.56,0,0,0-1.16-.42,2.6,2.6,0,0,0-1,.18,1.9,1.9,0,0,0-.71.51,2.2,2.2,0,0,0-.43.77,3.14,3.14,0,0,0-.14,1v4.38H26V81.58ZM22.9,89.33V88.1h0a2.61,2.61,0,0,1-1,1.06,3.1,3.1,0,0,1-1.49.34,3.48,3.48,0,0,1-1.27-.2,2,2,0,0,1-.83-.58,2.17,2.17,0,0,1-.44-.89,4.8,4.8,0,0,1-.13-1.15v-5.1H19v5.25A1.54,1.54,0,0,0,19.38,88a1.56,1.56,0,0,0,1.16.42,2.6,2.6,0,0,0,1-.18,1.9,1.9,0,0,0,.71-.51,2.19,2.19,0,0,0,.43-.77,3.14,3.14,0,0,0,.14-1V81.58H24.1v7.76Zm-14-5.47a3.62,3.62,0,0,1,.72-1.29,3.4,3.4,0,0,1,1.18-.86,3.93,3.93,0,0,1,1.62-.31,3.92,3.92,0,0,1,1.63.31,3.42,3.42,0,0,1,1.18.86,3.62,3.62,0,0,1,.72,1.29,5.16,5.16,0,0,1,.24,1.6,5.09,5.09,0,0,1-.24,1.59,3.63,3.63,0,0,1-.72,1.28,3.33,3.33,0,0,1-1.18.85,4,4,0,0,1-1.63.31,4,4,0,0,1-1.62-.31,3.31,3.31,0,0,1-1.18-.85,3.63,3.63,0,0,1-.72-1.28,5.09,5.09,0,0,1-.24-1.59,5.16,5.16,0,0,1,.24-1.6m1.3,2.85a2.62,2.62,0,0,0,.52.92,2.24,2.24,0,0,0,.77.56,2.35,2.35,0,0,0,1.88,0,2.25,2.25,0,0,0,.77-.56,2.62,2.62,0,0,0,.52-.92,4.26,4.26,0,0,0,0-2.5,2.7,2.7,0,0,0-.52-.92,2.21,2.21,0,0,0-.77-.57,2.35,2.35,0,0,0-1.87,0,2.2,2.2,0,0,0-.77.57,2.71,2.71,0,0,0-.52.92,4.28,4.28,0,0,0,0,2.5M7.71,78.62v1.2H2.1v3.4H7v1.2H2.1v4.91H.68V78.62Z"/>
    <path class="cls-3" d="M134.56,71.84a3.52,3.52,0,0,1-2.19.66,4,4,0,0,1-1.61-.3,3.18,3.18,0,0,1-1.15-.84,3.57,3.57,0,0,1-.7-1.29,6.22,6.22,0,0,1-.26-1.64,4.67,4.67,0,0,1,.27-1.62,3.87,3.87,0,0,1,.76-1.27,3.44,3.44,0,0,1,1.15-.84,3.52,3.52,0,0,1,1.46-.3,3.18,3.18,0,0,1,1.72.43,3.39,3.39,0,0,1,1.1,1.09,4.3,4.3,0,0,1,.57,1.44,6.17,6.17,0,0,1,.13,1.48H130a3.08,3.08,0,0,0,.12,1,2.19,2.19,0,0,0,.43.81,2.15,2.15,0,0,0,.76.56,2.64,2.64,0,0,0,1.1.21,2.21,2.21,0,0,0,1.33-.37,1.81,1.81,0,0,0,.68-1.14h1.26a3.1,3.1,0,0,1-1.12,2m-.31-5a2.17,2.17,0,0,0-.47-.7,2.21,2.21,0,0,0-.69-.46,2.18,2.18,0,0,0-.88-.17,2.22,2.22,0,0,0-.89.17,2.06,2.06,0,0,0-.68.47,2.26,2.26,0,0,0-.45.7,2.65,2.65,0,0,0-.2.85h4.46a2.61,2.61,0,0,0-.2-.85m-8.6-.93a1.94,1.94,0,0,0-1.29-.4,2.37,2.37,0,0,0-1.15.25,2.05,2.05,0,0,0-.74.68,2.82,2.82,0,0,0-.4,1,5.21,5.21,0,0,0-.12,1.13,4.31,4.31,0,0,0,.13,1.05,2.82,2.82,0,0,0,.4.91,2,2,0,0,0,.71.64,2.41,2.41,0,0,0,2.51-.26,2.24,2.24,0,0,0,.65-1.4h1.31a3.58,3.58,0,0,1-1.07,2.22,3.37,3.37,0,0,1-2.35.78,4,4,0,0,1-1.57-.28,3,3,0,0,1-1.14-.81,3.5,3.5,0,0,1-.69-1.25,5.23,5.23,0,0,1-.23-1.6,5.69,5.69,0,0,1,.22-1.63,3.77,3.77,0,0,1,.68-1.32,3.21,3.21,0,0,1,1.15-.88,3.75,3.75,0,0,1,1.61-.32,4.69,4.69,0,0,1,1.24.16,3,3,0,0,1,1,.49,2.68,2.68,0,0,1,.73.83,3.1,3.1,0,0,1,.36,1.19h-1.32a2,2,0,0,0-.63-1.14m-11.78-1.35v1.23h0a2.68,2.68,0,0,1,2.52-1.41,3.37,3.37,0,0,1,1.28.21,2.1,2.1,0,0,1,.82.59,2.17,2.17,0,0,1,.44.89,4.79,4.79,0,0,1,.13,1.15v5.1h-1.28V67.08a1.54,1.54,0,0,0-.42-1.14,1.56,1.56,0,0,0-1.15-.42,2.6,2.6,0,0,0-1,.18,1.89,1.89,0,0,0-.71.51,2.18,2.18,0,0,0-.43.77,3.14,3.14,0,0,0-.14,1v4.38h-1.28V64.58Zm-3.76,7.26a3.52,3.52,0,0,1-2.19.66,4,4,0,0,1-1.61-.3,3.18,3.18,0,0,1-1.15-.84,3.57,3.57,0,0,1-.7-1.29,6.22,6.22,0,0,1-.26-1.64,4.67,4.67,0,0,1,.27-1.62,3.87,3.87,0,0,1,.76-1.27,3.44,3.44,0,0,1,1.15-.84,3.53,3.53,0,0,1,1.46-.3,3.18,3.18,0,0,1,1.72.43,3.39,3.39,0,0,1,1.1,1.09,4.3,4.3,0,0,1,.57,1.44,6.18,6.18,0,0,1,.13,1.48h-5.81a3.08,3.08,0,0,0,.12,1,2.19,2.19,0,0,0,.43.81,2.15,2.15,0,0,0,.76.56,2.64,2.64,0,0,0,1.1.21,2.21,2.21,0,0,0,1.33-.37,1.81,1.81,0,0,0,.68-1.14h1.26a3.1,3.1,0,0,1-1.12,2m-.31-5a2.17,2.17,0,0,0-.46-.7,2.21,2.21,0,0,0-.69-.46,2.18,2.18,0,0,0-.88-.17,2.22,2.22,0,0,0-.89.17,2.06,2.06,0,0,0-.68.47,2.26,2.26,0,0,0-.45.7,2.65,2.65,0,0,0-.19.85H110a2.61,2.61,0,0,0-.2-.85m-7.16,5.48h-1.28V64.58h1.28Zm-1.27-10.71h1.28v1.56h-1.28Zm-3.5,4.31a1.94,1.94,0,0,0-1.29-.4,2.38,2.38,0,0,0-1.15.25,2.06,2.06,0,0,0-.74.68,2.82,2.82,0,0,0-.4,1,5.27,5.27,0,0,0-.12,1.13,4.31,4.31,0,0,0,.13,1.05,2.79,2.79,0,0,0,.4.91,2,2,0,0,0,.71.64,2.11,2.11,0,0,0,1,.24,2.09,2.09,0,0,0,1.48-.5,2.24,2.24,0,0,0,.65-1.4h1.31a3.57,3.57,0,0,1-1.07,2.22,3.37,3.37,0,0,1-2.35.78,4,4,0,0,1-1.57-.28,3,3,0,0,1-1.14-.81,3.49,3.49,0,0,1-.69-1.25,5.2,5.2,0,0,1-.23-1.6A5.69,5.69,0,0,1,93,66.93a3.75,3.75,0,0,1,.68-1.32,3.21,3.21,0,0,1,1.15-.88,3.75,3.75,0,0,1,1.6-.32,4.69,4.69,0,0,1,1.24.16,3,3,0,0,1,1,.49,2.67,2.67,0,0,1,.73.83,3.06,3.06,0,0,1,.36,1.19H98.5a1.94,1.94,0,0,0-.63-1.14m-8.78-2.84a3,3,0,0,0-1.82-.52,4.36,4.36,0,0,0-.88.09,2.35,2.35,0,0,0-.77.3,1.58,1.58,0,0,0-.54.56,1.74,1.74,0,0,0-.2.88,1.12,1.12,0,0,0,.29.8,2.17,2.17,0,0,0,.78.5A6.55,6.55,0,0,0,87,66l1.25.28q.64.15,1.25.35a4.13,4.13,0,0,1,1.1.55,2.61,2.61,0,0,1,.78.87,3.05,3.05,0,0,1-.09,2.78,3.14,3.14,0,0,1-1,1A4.27,4.27,0,0,1,89,72.4a6.57,6.57,0,0,1-1.48.17,6.28,6.28,0,0,1-1.7-.23,4.2,4.2,0,0,1-1.41-.68,3.24,3.24,0,0,1-1-1.17,3.77,3.77,0,0,1-.35-1.69h1.35A2.42,2.42,0,0,0,84.73,70a2.39,2.39,0,0,0,.69.8,2.91,2.91,0,0,0,1,.47,4.58,4.58,0,0,0,1.17.15,5.33,5.33,0,0,0,1-.09,2.85,2.85,0,0,0,.88-.31,1.65,1.65,0,0,0,.87-1.55,1.34,1.34,0,0,0-.29-.9,2.15,2.15,0,0,0-.78-.56,5.72,5.72,0,0,0-1.1-.35l-1.25-.28q-.64-.14-1.25-.33a4.53,4.53,0,0,1-1.1-.5,2.37,2.37,0,0,1-.78-.8,2.34,2.34,0,0,1-.29-1.22,2.84,2.84,0,0,1,.33-1.4,2.89,2.89,0,0,1,.88-1,3.94,3.94,0,0,1,1.25-.57,5.49,5.49,0,0,1,1.43-.19,5.72,5.72,0,0,1,1.53.19,3.47,3.47,0,0,1,1.24.61,3,3,0,0,1,.84,1.06,3.77,3.77,0,0,1,.34,1.52H89.92a2.23,2.23,0,0,0-.83-1.67M77.37,72.33H76.09V61.62h1.28Zm-4.6-2.71a1.43,1.43,0,0,1-.14.57,1.73,1.73,0,0,1-.42.57,2.27,2.27,0,0,1-.74.43,3,3,0,0,1-1.08.17,2.62,2.62,0,0,1-.57-.06,1.37,1.37,0,0,1-.47-.19,1.05,1.05,0,0,1-.33-.35,1,1,0,0,1-.13-.53,1.19,1.19,0,0,1,.22-.75,1.42,1.42,0,0,1,.56-.43,3.2,3.2,0,0,1,.78-.22l.86-.12c.28,0,.56-.08.82-.14a1.59,1.59,0,0,0,.63-.26Zm2.07,1.69a1.55,1.55,0,0,1-.39.06c-.2,0-.32-.07-.35-.21A3,3,0,0,1,74,70.5v-4a2.08,2.08,0,0,0-.25-1.09,1.81,1.81,0,0,0-.68-.65,2.73,2.73,0,0,0-.94-.31,7.25,7.25,0,0,0-1-.07,5.42,5.42,0,0,0-1.24.14,3,3,0,0,0-1,.44,2.27,2.27,0,0,0-.72.8,2.75,2.75,0,0,0-.3,1.22h1.28a1.3,1.3,0,0,1,.58-1.16,2.7,2.7,0,0,1,1.35-.31,4.18,4.18,0,0,1,.61,0,1.65,1.65,0,0,1,.56.18,1.08,1.08,0,0,1,.4.39,1.27,1.27,0,0,1,.16.67.7.7,0,0,1-.21.55,1.39,1.39,0,0,1-.57.28,5.56,5.56,0,0,1-.83.15q-.47.05-1,.16t-1,.22a2.72,2.72,0,0,0-.84.4,2,2,0,0,0-.59.68,2.28,2.28,0,0,0-.23,1.08,2.25,2.25,0,0,0,.2,1,1.79,1.79,0,0,0,.55.67,2.32,2.32,0,0,0,.82.38,4.23,4.23,0,0,0,2.5-.16,3.06,3.06,0,0,0,1.22-.91,1.21,1.21,0,0,0,.29.91,1.1,1.1,0,0,0,.79.28,1.8,1.8,0,0,0,.92-.19Zm-9.86-4a2.86,2.86,0,0,0-.43-.92,2.13,2.13,0,0,0-.75-.65,2.28,2.28,0,0,0-1.07-.24,2.1,2.1,0,0,0-1.83.92,2.79,2.79,0,0,0-.41.94,4.55,4.55,0,0,0,0,2.17,2.73,2.73,0,0,0,.43.94,2.19,2.19,0,0,0,.76.65,2.37,2.37,0,0,0,1.13.25,2.18,2.18,0,0,0,1.1-.26,2.05,2.05,0,0,0,.71-.67,2.94,2.94,0,0,0,.39-1,5.1,5.1,0,0,0,.12-1.11A4,4,0,0,0,65,67.33m-4.58-5.71v4h0a1.91,1.91,0,0,1,1-.94,3.7,3.7,0,0,1,1.49-.29,3.5,3.5,0,0,1,1.57.33,3.19,3.19,0,0,1,1.11.89,3.94,3.94,0,0,1,.67,1.3,5.3,5.3,0,0,1,.22,1.56A5.47,5.47,0,0,1,66.25,70a3.68,3.68,0,0,1-.66,1.28,3.11,3.11,0,0,1-1.11.86,3.6,3.6,0,0,1-1.55.31,3.84,3.84,0,0,1-.64-.06,3.54,3.54,0,0,1-.7-.19,2.73,2.73,0,0,1-.65-.37,2.05,2.05,0,0,1-.52-.58h0v1H59.11V61.62ZM50.28,66.87A3.62,3.62,0,0,1,51,65.58a3.39,3.39,0,0,1,1.19-.86,4.34,4.34,0,0,1,3.25,0,3.41,3.41,0,0,1,1.18.86,3.62,3.62,0,0,1,.72,1.29,5.16,5.16,0,0,1,.24,1.6,5.09,5.09,0,0,1-.24,1.59,3.63,3.63,0,0,1-.72,1.28,3.33,3.33,0,0,1-1.18.85,4.45,4.45,0,0,1-3.25,0A3.31,3.31,0,0,1,51,71.34a3.63,3.63,0,0,1-.72-1.28A5.09,5.09,0,0,1,50,68.46a5.16,5.16,0,0,1,.24-1.6m1.3,2.85a2.62,2.62,0,0,0,.52.92,2.24,2.24,0,0,0,.77.56,2.35,2.35,0,0,0,1.88,0,2.25,2.25,0,0,0,.77-.56,2.62,2.62,0,0,0,.52-.92,4.27,4.27,0,0,0,0-2.5,2.7,2.7,0,0,0-.52-.92,2.21,2.21,0,0,0-.77-.57,2.35,2.35,0,0,0-1.87,0,2.2,2.2,0,0,0-.77.57,2.71,2.71,0,0,0-.52.92,4.29,4.29,0,0,0,0,2.5m-3.1,2.62H47.2V61.62h1.28Zm-6.08-.13a5.09,5.09,0,0,1-1.87.37,5,5,0,0,1-2.15-.44,4.85,4.85,0,0,1-1.6-1.19,5.22,5.22,0,0,1-1-1.73,6,6,0,0,1-.35-2A7.59,7.59,0,0,1,35.75,65a5.49,5.49,0,0,1,1-1.85,4.66,4.66,0,0,1,1.59-1.27,5,5,0,0,1,2.23-.47,6.46,6.46,0,0,1,1.64.2,4.16,4.16,0,0,1,1.38.64,3.79,3.79,0,0,1,1,1.1,4.33,4.33,0,0,1,.56,1.61H43.71a2.8,2.8,0,0,0-.39-1.06,2.51,2.51,0,0,0-.7-.73,3.11,3.11,0,0,0-1-.43,4.37,4.37,0,0,0-1.13-.14A3.26,3.26,0,0,0,37.72,64a4.48,4.48,0,0,0-.65,1.45,6.69,6.69,0,0,0-.21,1.67,5.41,5.41,0,0,0,.24,1.61,4.21,4.21,0,0,0,.7,1.36,3.46,3.46,0,0,0,1.15.94,3.4,3.4,0,0,0,1.58.35A3.82,3.82,0,0,0,42,71.12a3.05,3.05,0,0,0,1.76-1.85A3.64,3.64,0,0,0,44,67.89H40.54v-1.2h4.7v5.64h-.9L44,71a3.56,3.56,0,0,1-1.56,1.21m-13,.13H28V61.62h1.42Zm-5.84-9.25a3,3,0,0,0-1.82-.52,4.36,4.36,0,0,0-.89.09,2.35,2.35,0,0,0-.77.3,1.58,1.58,0,0,0-.54.56,1.74,1.74,0,0,0-.2.88,1.12,1.12,0,0,0,.29.8,2.17,2.17,0,0,0,.78.5,6.56,6.56,0,0,0,1.1.32l1.25.28q.64.15,1.25.35a4.13,4.13,0,0,1,1.1.55,2.61,2.61,0,0,1,.78.87,3,3,0,0,1-.09,2.78,3.14,3.14,0,0,1-1,1,4.28,4.28,0,0,1-1.34.55,6.56,6.56,0,0,1-1.48.17,6.28,6.28,0,0,1-1.7-.23,4.2,4.2,0,0,1-1.41-.68,3.24,3.24,0,0,1-1-1.17,3.77,3.77,0,0,1-.35-1.69h1.35A2.42,2.42,0,0,0,19.18,70a2.39,2.39,0,0,0,.69.8,2.91,2.91,0,0,0,1,.47,4.58,4.58,0,0,0,1.17.15,5.31,5.31,0,0,0,1-.09,2.85,2.85,0,0,0,.88-.31,1.65,1.65,0,0,0,.87-1.55,1.34,1.34,0,0,0-.29-.9,2.15,2.15,0,0,0-.78-.56,5.7,5.7,0,0,0-1.1-.35l-1.25-.28q-.64-.14-1.25-.33a4.52,4.52,0,0,1-1.1-.5,2.37,2.37,0,0,1-.78-.8,2.34,2.34,0,0,1-.29-1.22,2.84,2.84,0,0,1,.33-1.4,2.88,2.88,0,0,1,.88-1,3.94,3.94,0,0,1,1.24-.57,5.5,5.5,0,0,1,1.43-.19,5.73,5.73,0,0,1,1.53.19,3.46,3.46,0,0,1,1.24.61,3,3,0,0,1,.84,1.06,3.79,3.79,0,0,1,.34,1.52H24.37a2.23,2.23,0,0,0-.83-1.67m-7.76,9.25H14.35V61.62h1.43ZM2.5,67.59a3.12,3.12,0,0,0-.59.51,2.3,2.3,0,0,0-.4.64,2.11,2.11,0,0,0-.15.83,1.6,1.6,0,0,0,.17.74,1.75,1.75,0,0,0,.46.57,2.24,2.24,0,0,0,.65.37,2.17,2.17,0,0,0,.76.14A2.51,2.51,0,0,0,4.7,71a3,3,0,0,0,1-.93l-2.46-3c-.25.14-.49.28-.71.43m2.56,4.53a4.13,4.13,0,0,1-1.72.38,3.91,3.91,0,0,1-1.74-.33,2.9,2.9,0,0,1-1-.8,2.44,2.44,0,0,1-.47-1A3.86,3.86,0,0,1,0,69.59a2.85,2.85,0,0,1,.2-1.11,3.16,3.16,0,0,1,.54-.86,4.05,4.05,0,0,1,.8-.69,10.6,10.6,0,0,1,1-.58l-.43-.6a6.78,6.78,0,0,1-.38-.58,2.75,2.75,0,0,1-.27-.61,2.48,2.48,0,0,1-.1-.73A2.22,2.22,0,0,1,1.48,63a2,2,0,0,1,.46-.7,2.21,2.21,0,0,1,.76-.49,2.77,2.77,0,0,1,1-.18,3.5,3.5,0,0,1,1,.14,2.45,2.45,0,0,1,.83.41,2.1,2.1,0,0,1,.58.69,2,2,0,0,1,.22,1,2.38,2.38,0,0,1-.16.89,2.83,2.83,0,0,1-.45.76,4,4,0,0,1-.65.62,6.76,6.76,0,0,1-.75.5l1.94,2.36a5.89,5.89,0,0,0,.34-1.67H7.82q0,.48-.1.82a5.2,5.2,0,0,1-.13.62,4.92,4.92,0,0,1-.2.56l-.29.64,2.09,2.42H7.51L6.38,71a3,3,0,0,1-1.31,1.13m-1-6.7a3,3,0,0,0,.46-.4,2,2,0,0,0,.35-.5,1.41,1.41,0,0,0,.13-.62,1.11,1.11,0,0,0-.33-.8,1.2,1.2,0,0,0-.9-.34A1.42,1.42,0,0,0,3,63a1,1,0,0,0-.39.86,1.25,1.25,0,0,0,.1.48,2.78,2.78,0,0,0,.25.47,5.54,5.54,0,0,0,.33.46l.36.45.48-.33"/>
    <path class="cls-3" d="M90.84,47.58v1.23h0a2.68,2.68,0,0,1,2.52-1.41,3.37,3.37,0,0,1,1.28.21,2.1,2.1,0,0,1,.82.58,2.17,2.17,0,0,1,.44.89,4.8,4.8,0,0,1,.13,1.15v5.1H94.78V50.08a1.54,1.54,0,0,0-.42-1.14,1.56,1.56,0,0,0-1.15-.42,2.6,2.6,0,0,0-1,.18,1.9,1.9,0,0,0-.71.51,2.2,2.2,0,0,0-.43.77,3.15,3.15,0,0,0-.14,1v4.38H89.64V47.58Zm-10,2.29a3.63,3.63,0,0,1,.72-1.29,3.4,3.4,0,0,1,1.18-.86,4.34,4.34,0,0,1,3.25,0,3.42,3.42,0,0,1,1.18.86,3.63,3.63,0,0,1,.72,1.29,5.17,5.17,0,0,1,.24,1.6,5.09,5.09,0,0,1-.24,1.59,3.62,3.62,0,0,1-.72,1.28,3.3,3.3,0,0,1-1.18.85,4.44,4.44,0,0,1-3.25,0,3.29,3.29,0,0,1-1.18-.85,3.62,3.62,0,0,1-.72-1.28,5.09,5.09,0,0,1-.24-1.59,5.17,5.17,0,0,1,.24-1.6m1.3,2.85a2.6,2.6,0,0,0,.52.92,2.24,2.24,0,0,0,.77.56,2.35,2.35,0,0,0,1.88,0,2.23,2.23,0,0,0,.77-.56,2.6,2.6,0,0,0,.52-.92,4.29,4.29,0,0,0,0-2.5,2.71,2.71,0,0,0-.52-.92,2.2,2.2,0,0,0-.77-.57,2.35,2.35,0,0,0-1.87,0,2.21,2.21,0,0,0-.77.57,2.71,2.71,0,0,0-.52.92,4.27,4.27,0,0,0,0,2.5M79,55.33H77.77V47.58H79ZM77.77,44.62H79v1.56H77.77Zm-1.49,3V48.7H74.74v4.81a1.39,1.39,0,0,0,0,.36.37.37,0,0,0,.14.21.63.63,0,0,0,.29.1l.49,0h.58v1.13h-1a4.58,4.58,0,0,1-.85-.07A1.24,1.24,0,0,1,73.9,55a1.06,1.06,0,0,1-.32-.51,3,3,0,0,1-.1-.87V48.7H72.15V47.58h1.32V45.25h1.28v2.33Zm-6.57,5a1.43,1.43,0,0,1-.14.57,1.72,1.72,0,0,1-.42.57,2.27,2.27,0,0,1-.74.43,3,3,0,0,1-1.08.17,2.62,2.62,0,0,1-.57-.06,1.36,1.36,0,0,1-.47-.19,1,1,0,0,1-.33-.35,1,1,0,0,1-.13-.53,1.18,1.18,0,0,1,.22-.75,1.42,1.42,0,0,1,.56-.43,3.22,3.22,0,0,1,.78-.22l.86-.12q.43-.05.82-.14a1.59,1.59,0,0,0,.63-.26Zm2.07,1.69a1.55,1.55,0,0,1-.39.06c-.2,0-.32-.07-.35-.21A2.9,2.9,0,0,1,71,53.5v-4a2.08,2.08,0,0,0-.26-1.09,1.79,1.79,0,0,0-.67-.65,2.72,2.72,0,0,0-.94-.31,7.27,7.27,0,0,0-1-.07,5.42,5.42,0,0,0-1.24.13,3,3,0,0,0-1,.44,2.28,2.28,0,0,0-.72.8A2.75,2.75,0,0,0,64.8,50h1.27a1.31,1.31,0,0,1,.58-1.16A2.71,2.71,0,0,1,68,48.52a4.21,4.21,0,0,1,.61,0,1.65,1.65,0,0,1,.56.18,1.08,1.08,0,0,1,.41.39,1.27,1.27,0,0,1,.16.67.69.69,0,0,1-.21.55,1.36,1.36,0,0,1-.57.28,5.31,5.31,0,0,1-.83.15c-.32,0-.65.09-1,.16s-.65.13-1,.22a2.73,2.73,0,0,0-.84.4,2,2,0,0,0-.59.68,2.28,2.28,0,0,0-.22,1.08,2.24,2.24,0,0,0,.2,1,1.79,1.79,0,0,0,.55.67,2.32,2.32,0,0,0,.82.38,4.22,4.22,0,0,0,2.5-.16,3,3,0,0,0,1.22-.91,1.2,1.2,0,0,0,.29.91,1.1,1.1,0,0,0,.79.28,1.8,1.8,0,0,0,.92-.19Zm-10.11,1v-1h0a1.88,1.88,0,0,1-1,.93,3.78,3.78,0,0,1-1.49.28,3.5,3.5,0,0,1-1.57-.33,3.23,3.23,0,0,1-1.11-.88A3.86,3.86,0,0,1,55.83,53a5.3,5.3,0,0,1-.22-1.56,5.47,5.47,0,0,1,.22-1.56,3.68,3.68,0,0,1,.66-1.28,3.21,3.21,0,0,1,1.11-.87,3.54,3.54,0,0,1,1.55-.32,3.78,3.78,0,0,1,.65.06,3.33,3.33,0,0,1,.69.2,3,3,0,0,1,.65.38,2.07,2.07,0,0,1,.52.58h0v-4H63V55.33ZM57.1,52.58a2.86,2.86,0,0,0,.44.92,2.13,2.13,0,0,0,.75.65,2.28,2.28,0,0,0,1.07.24,2.1,2.1,0,0,0,1.83-.92,2.78,2.78,0,0,0,.41-.94,4.55,4.55,0,0,0,0-2.17,2.73,2.73,0,0,0-.43-.94,2.19,2.19,0,0,0-.76-.65,2.37,2.37,0,0,0-1.12-.25,2.19,2.19,0,0,0-1.1.25,2,2,0,0,0-.72.68,2.94,2.94,0,0,0-.39,1A5.1,5.1,0,0,0,57,51.52a4,4,0,0,0,.14,1.06m-8.21-5v1.23h0a2.68,2.68,0,0,1,2.52-1.41,3.37,3.37,0,0,1,1.28.21,2.1,2.1,0,0,1,.83.58,2.17,2.17,0,0,1,.44.89,4.8,4.8,0,0,1,.13,1.15v5.1H52.83V50.08a1.54,1.54,0,0,0-.42-1.14,1.56,1.56,0,0,0-1.15-.42,2.6,2.6,0,0,0-1,.18,1.9,1.9,0,0,0-.71.51,2.2,2.2,0,0,0-.43.77A3.15,3.15,0,0,0,49,51v4.38H47.68V47.58Zm-4.32,7.75V54.1h0a2.6,2.6,0,0,1-1,1.06A3.1,3.1,0,0,1,42,55.5a3.48,3.48,0,0,1-1.28-.2,2,2,0,0,1-.82-.58,2.17,2.17,0,0,1-.44-.89,4.79,4.79,0,0,1-.13-1.15v-5.1h1.27v5.25A1.54,1.54,0,0,0,41,54a1.56,1.56,0,0,0,1.15.42,2.6,2.6,0,0,0,1-.18,1.9,1.9,0,0,0,.71-.51,2.19,2.19,0,0,0,.43-.77,3.13,3.13,0,0,0,.14-1V47.58h1.28v7.75Zm-14-5.47a3.63,3.63,0,0,1,.72-1.29,3.4,3.4,0,0,1,1.18-.86,4.34,4.34,0,0,1,3.25,0,3.42,3.42,0,0,1,1.18.86,3.63,3.63,0,0,1,.72,1.29,5.17,5.17,0,0,1,.24,1.6,5.09,5.09,0,0,1-.24,1.59,3.62,3.62,0,0,1-.72,1.28,3.3,3.3,0,0,1-1.18.85,4.44,4.44,0,0,1-3.25,0,3.29,3.29,0,0,1-1.18-.85,3.62,3.62,0,0,1-.72-1.28,5.09,5.09,0,0,1-.24-1.59,5.17,5.17,0,0,1,.24-1.6m1.3,2.85a2.6,2.6,0,0,0,.52.92,2.24,2.24,0,0,0,.77.56,2.35,2.35,0,0,0,1.88,0,2.23,2.23,0,0,0,.77-.56,2.6,2.6,0,0,0,.52-.92,4.29,4.29,0,0,0,0-2.5,2.71,2.71,0,0,0-.52-.92,2.2,2.2,0,0,0-.77-.57,2.35,2.35,0,0,0-1.87,0,2.21,2.21,0,0,0-.77.57,2.71,2.71,0,0,0-.52.92,4.27,4.27,0,0,0,0,2.5m-2.48-8.09v1.2H23.76v3.4h4.92v1.2H23.76v4.9H22.33V44.62ZM15.77,55.33H14.34V44.62h1.43ZM9.92,46.08a3,3,0,0,0-1.82-.52,4.36,4.36,0,0,0-.89.09,2.35,2.35,0,0,0-.77.3,1.58,1.58,0,0,0-.54.56,1.74,1.74,0,0,0-.2.88,1.11,1.11,0,0,0,.29.8,2.16,2.16,0,0,0,.78.5,6.47,6.47,0,0,0,1.1.32l1.25.28q.64.15,1.25.35a4.13,4.13,0,0,1,1.1.55,2.61,2.61,0,0,1,.78.87,3,3,0,0,1-.09,2.78,3.15,3.15,0,0,1-1,1,4.26,4.26,0,0,1-1.34.56,6.51,6.51,0,0,1-1.48.17,6.28,6.28,0,0,1-1.7-.23,4.19,4.19,0,0,1-1.41-.68,3.22,3.22,0,0,1-1-1.17,3.76,3.76,0,0,1-.35-1.69H5.3A2.41,2.41,0,0,0,5.56,53a2.38,2.38,0,0,0,.69.8,2.91,2.91,0,0,0,1,.47,4.58,4.58,0,0,0,1.17.15,5.31,5.31,0,0,0,1-.09,2.83,2.83,0,0,0,.88-.31,1.64,1.64,0,0,0,.87-1.55,1.34,1.34,0,0,0-.29-.9,2.16,2.16,0,0,0-.78-.56A5.78,5.78,0,0,0,9,50.62L7.7,50.34Q7.06,50.2,6.45,50a4.46,4.46,0,0,1-1.1-.49,2.22,2.22,0,0,1-1.07-2,2.84,2.84,0,0,1,.33-1.4,2.89,2.89,0,0,1,.88-1,4,4,0,0,1,1.25-.57,5.54,5.54,0,0,1,1.43-.19,5.72,5.72,0,0,1,1.53.19,3.46,3.46,0,0,1,1.24.62,3,3,0,0,1,.84,1.06,3.78,3.78,0,0,1,.34,1.52H10.76a2.23,2.23,0,0,0-.83-1.67M2.16,55.33H.74V44.62H2.16Z"/>
  </g>
</svg>
